# xmcd CD database file
#
# Track frame offsets:
#	150
#	14302
#	32965
#	47990
#	76732
#	94970
#	113802
#	126085
#	143710
#	162557
#
# Disc length: 2344 seconds
#
# Revision: 0
# Processed by: cddbd v1.5.1PL0 Copyright (c) Steve Scherf et al.
# Submitted via: CDex 1.51
#
DISCID=8209260a
DTITLE=Teddy Wilson and Marian McPartland - Elegant Piano
DYEAR=1977
DGENRE=Jazz
TTITLE0=Quiet Nights
TTITLE1=Slowly Into Evenings
TTITLE2=Shiny Stockings
TTITLE3=Four-In-Hand Blues
TTITLE4=Love
TTITLE5=Bluesette
TTITLE6=Cottage For Sale
TTITLE7=Lover Man
TTITLE8=Just One Of Those Things
TTITLE9=Blues For Six
EXTD=YEAR: 1977
EXTT0=
EXTT1=
EXTT2=
EXTT3=
EXTT4=
EXTT5=
EXTT6=
EXTT7=
EXTT8=
EXTT9=
PLAYORDER=
